<svg xmlns="http://www.w3.org/2000/svg" width="375" viewBox="0 0 375 375" height="375" version="1.0"><defs><clipPath id="a"><path d="M 91.085938 91.085938 L 283.835938 91.085938 L 283.835938 283.835938 L 91.085938 283.835938 Z M 91.085938 91.085938"/></clipPath></defs><g clip-path="url(#a)"><path fill="#403730" d="M 187.488281 283.835938 C 161.734375 283.835938 137.542969 273.785156 119.367188 255.613281 C 101.132812 237.4375 91.085938 213.1875 91.085938 187.488281 C 91.085938 161.792969 101.132812 137.542969 119.308594 119.367188 C 137.542969 101.132812 161.734375 91.085938 187.488281 91.085938 C 213.246094 91.085938 237.4375 101.132812 255.613281 119.308594 C 273.785156 137.480469 283.835938 161.734375 283.835938 187.429688 C 283.835938 213.125 273.785156 237.378906 255.613281 255.550781 C 237.4375 273.84375 213.1875 283.835938 187.488281 283.835938 Z M 187.488281 93.972656 C 135.917969 93.972656 93.972656 135.917969 93.972656 187.488281 C 93.972656 239.0625 135.917969 281.007812 187.488281 281.007812 C 239.0625 281.007812 281.007812 239.0625 281.007812 187.488281 C 280.945312 135.917969 239.003906 93.972656 187.488281 93.972656 Z M 187.488281 93.972656"/></g><g><g><g><path d="M 68.640625 -9.015625 C 69.566406 -6.722656 70.582031 -5.019531 71.6875 -3.90625 C 72.800781 -2.800781 73.894531 -2.210938 74.96875 -2.140625 L 74.96875 0 C 69.820312 -0.21875 63.316406 -0.328125 55.453125 -0.328125 C 47.296875 -0.328125 41.289062 -0.21875 37.4375 0 L 37.4375 -2.140625 C 40.144531 -2.285156 42.070312 -2.625 43.21875 -3.15625 C 44.363281 -3.695312 44.9375 -4.644531 44.9375 -6 C 44.9375 -7.289062 44.507812 -9.007812 43.65625 -11.15625 L 37.328125 -28.75 L 15.65625 -28.75 L 13.828125 -23.921875 C 11.472656 -17.835938 10.296875 -13.1875 10.296875 -9.96875 C 10.296875 -7.039062 11.117188 -5.039062 12.765625 -3.96875 C 14.410156 -2.894531 16.84375 -2.285156 20.0625 -2.140625 L 20.0625 0 C 14.695312 -0.21875 10.007812 -0.328125 6 -0.328125 C 2.644531 -0.328125 -0.101562 -0.21875 -2.25 0 L -2.25 -2.140625 C -0.46875 -2.429688 1.207031 -3.539062 2.78125 -5.46875 C 4.351562 -7.394531 5.960938 -10.46875 7.609375 -14.6875 L 31.421875 -75.9375 C 33.710938 -75.789062 35.609375 -75.71875 37.109375 -75.71875 C 38.535156 -75.71875 40.394531 -75.789062 42.6875 -75.9375 Z M 36.578125 -30.890625 L 26.8125 -57.703125 L 16.515625 -30.890625 Z M 36.578125 -30.890625" transform="translate(128.466 221.289)"/></g></g></g><g><g><g><path d="M 80.015625 -4.296875 C 77.867188 -2.148438 75.503906 -0.648438 72.921875 0.203125 C 70.347656 1.066406 67.347656 1.5 63.921875 1.5 C 58.984375 1.5 55.15625 0.625 52.4375 -1.125 C 49.726562 -2.875 48.050781 -5.859375 47.40625 -10.078125 L 45.796875 -20.8125 C 45.078125 -25.8125 44.09375 -29.597656 42.84375 -32.171875 C 41.59375 -34.742188 39.71875 -36.03125 37.21875 -36.03125 L 32.390625 -36.03125 L 32.390625 -11.375 C 32.390625 -8.65625 32.582031 -6.6875 32.96875 -5.46875 C 33.363281 -4.25 34.0625 -3.425781 35.0625 -3 C 36.070312 -2.570312 37.71875 -2.285156 40 -2.140625 L 40 0 C 35.851562 -0.21875 29.882812 -0.328125 22.09375 -0.328125 C 13.4375 -0.328125 7.070312 -0.21875 3 0 L 3 -2.140625 C 5.289062 -2.285156 6.953125 -2.570312 7.984375 -3 C 9.023438 -3.425781 9.722656 -4.25 10.078125 -5.46875 C 10.441406 -6.6875 10.625 -8.65625 10.625 -11.375 L 10.625 -64.5625 C 10.625 -67.28125 10.425781 -69.242188 10.03125 -70.453125 C 9.632812 -71.671875 8.9375 -72.492188 7.9375 -72.921875 C 6.9375 -73.359375 5.289062 -73.644531 3 -73.78125 L 3 -75.9375 C 7.070312 -75.71875 13.222656 -75.609375 21.453125 -75.609375 L 33.78125 -75.71875 C 35.207031 -75.789062 36.851562 -75.828125 38.71875 -75.828125 C 49.582031 -75.828125 57.675781 -74.289062 63 -71.21875 C 68.332031 -68.144531 71 -63.460938 71 -57.171875 C 71 -51.804688 68.992188 -47.226562 64.984375 -43.4375 C 60.984375 -39.644531 54.265625 -37.320312 44.828125 -36.46875 C 52.117188 -35.96875 57.625 -34.585938 61.34375 -32.328125 C 65.0625 -30.078125 67.351562 -26.773438 68.21875 -22.421875 L 70.46875 -11.265625 C 70.96875 -8.617188 71.570312 -6.796875 72.28125 -5.796875 C 73 -4.796875 74.003906 -4.296875 75.296875 -4.296875 C 76.578125 -4.296875 77.679688 -4.757812 78.609375 -5.6875 Z M 38.1875 -73.78125 C 36.539062 -73.78125 35.304688 -73.53125 34.484375 -73.03125 C 33.660156 -72.53125 33.101562 -71.632812 32.8125 -70.34375 C 32.53125 -69.0625 32.390625 -67.132812 32.390625 -64.5625 L 32.390625 -38.1875 L 35.28125 -38.1875 C 40.363281 -38.1875 43.832031 -39.738281 45.6875 -42.84375 C 47.550781 -45.957031 48.484375 -50.335938 48.484375 -55.984375 C 48.484375 -61.847656 47.675781 -66.28125 46.0625 -69.28125 C 44.457031 -72.28125 41.832031 -73.78125 38.1875 -73.78125 Z M 38.1875 -73.78125" transform="translate(177.119 221.289)"/></g></g></g></svg>